<svg version="1.1" id="Layer_1" xmlns="http://www.w3.org/2000/svg" xmlns:xlink="http://www.w3.org/1999/xlink" x="0px" y="0px"
	 width="100%" viewBox="0 0 1080 1080" enable-background="new 0 0 1080 1080" xml:space="preserve">

<path id="Left_CentralIncisor" fill="#2729B0" opacity="1.000000" stroke="none" 
	d="
M332.851990,445.275055 
	C335.564301,433.805420 337.152863,421.918457 341.224609,410.953644 
	C349.508270,388.646698 360.664520,367.834137 379.987671,352.733185 
	C389.587250,345.231171 401.304565,343.747803 412.826660,342.089355 
	C440.131409,338.159241 460.909515,349.769501 477.964691,369.936676 
	C491.262390,385.660736 498.552917,404.346863 504.482086,423.714996 
	C516.105835,461.685028 525.260681,500.092743 523.810486,540.185425 
	C523.569092,546.859802 522.215698,553.802063 519.751526,559.971680 
	C518.288940,563.633545 514.119263,567.435913 510.339569,568.698364 
	C502.237701,571.404480 493.658722,572.915466 485.163300,574.141296 
	C477.307526,575.274902 469.278900,575.150330 461.373718,576.013123 
	C436.504456,578.727112 411.613831,579.159302 386.632263,577.914673 
	C377.737030,577.471619 369.203217,576.537537 360.836975,573.182739 
	C348.881042,568.388550 341.787231,559.582153 338.176056,547.650085 
	C336.493652,542.091125 335.344543,536.370789 333.842163,529.921753 
	C332.822144,516.959290 331.590179,504.811646 331.102234,492.634216 
	C330.670471,481.859741 330.892609,471.047485 331.175446,460.261108 
	C331.306702,455.254547 332.267303,450.269714 332.851990,445.275055 
z"/>
<path id="Upper_RightCentralIncisor" fill="#FE5858" opacity="1.000000" stroke="none" 
	d="
M746.924805,543.173218 
	C741.913574,558.813904 731.916748,568.847778 715.107544,570.652283 
	C709.517761,571.252319 703.810669,570.714417 698.158386,570.789124 
	C686.518921,570.942993 674.872559,571.515503 663.243225,571.262756 
	C647.320068,570.916809 631.413635,569.862976 615.493103,569.312988 
	C607.521423,569.037537 599.522949,569.452515 591.558594,569.081787 
	C586.789368,568.859802 581.997131,568.008240 577.330994,566.936035 
	C568.682373,564.948914 564.048523,558.849548 561.300415,550.753052 
	C556.536316,536.716736 556.820129,522.403442 558.258728,507.943848 
	C559.247314,498.007660 560.800964,488.026123 560.606262,478.094177 
	C560.148071,454.725800 565.388550,432.675415 573.204468,410.873444 
	C580.043091,391.797485 588.858337,374.120270 604.275208,360.548676 
	C618.174988,348.312592 633.938171,340.030518 652.943970,338.927124 
	C667.832458,338.062775 682.066772,339.954468 694.127686,349.274902 
	C707.712463,359.772949 719.230103,372.438171 725.823547,388.452637 
	C732.005493,403.467651 736.775574,419.063965 742.330078,435.157654 
	C744.052063,451.587860 746.443176,467.238281 746.946350,482.949127 
	C747.498901,500.204773 746.257507,517.515076 745.939819,534.804199 
	C745.888672,537.586914 746.577881,540.383179 746.924805,543.173218 
z"/>
<path id="Upper_LeftCanine" fill="#4A0D8A" opacity="1.000000" stroke="none" 
	d="
M132.958954,341.047333 
	C139.677795,343.560089 144.878326,347.767487 147.921036,354.404816 
	C148.192780,354.997650 148.553650,355.575348 148.979599,356.068024 
	C166.118408,375.891083 177.518295,399.479675 191.625275,421.288574 
	C193.912460,424.824493 194.796783,429.267792 196.535248,433.950165 
	C189.971252,462.126953 189.457504,489.873901 193.700409,517.794739 
	C189.947800,521.264648 186.325455,524.889282 182.419968,528.177612 
	C165.763870,542.201843 147.250961,553.336426 127.291107,561.854553 
	C117.259743,566.135498 106.827866,570.104370 96.180489,572.160034 
	C82.223335,574.854675 70.148277,569.492554 60.158199,559.307983 
	C56.972878,556.060547 53.243732,553.271667 49.484436,550.677185 
	C40.573143,544.527222 36.821491,535.403625 35.085232,525.396118 
	C30.644186,499.798798 32.041546,474.518860 38.950371,449.361206 
	C41.654762,439.513519 42.049595,429.048096 43.787537,418.913940 
	C45.548214,408.647186 47.621605,398.432800 49.645962,388.212921 
	C51.384869,379.434113 53.071308,370.638641 55.106346,361.926544 
	C57.081535,353.470642 63.038399,347.650574 68.966576,341.751709 
	C79.533638,331.236938 92.259819,330.515259 105.593842,333.585815 
	C114.745705,335.693359 123.657272,338.844330 132.836823,341.268616 
	C132.997391,341.008331 132.958954,341.047333 132.958954,341.047333 
z"/>
<path id="Upper_RightCanine" fill="#4AE27F" opacity="0.9000000" stroke="none" 
	d="
M875.148743,437.023407 
	C876.785583,433.669739 878.914612,430.464600 879.979065,426.938171 
	C886.786072,404.388306 893.007751,381.656311 900.131836,359.209503 
	C904.928406,344.096405 911.495850,329.181458 922.130676,317.583313 
	C938.648682,299.569214 963.134216,290.779633 986.286133,305.446167 
	C993.250488,309.858002 998.273376,316.521820 1001.014893,324.484528 
	C1013.889709,361.879242 1025.378052,399.685913 1033.860840,438.341034 
	C1036.421631,450.010315 1038.697754,461.777466 1040.329834,473.606628 
	C1042.633057,490.299316 1036.716309,503.511017 1022.326233,512.883667 
	C1017.626709,515.944641 1013.556030,519.982605 1009.253052,523.638855 
	C996.348328,534.603882 981.042603,539.753723 964.515625,540.718933 
	C952.449280,541.423523 941.022644,537.513123 931.126465,530.682861 
	C920.837463,523.581482 909.489014,519.205078 897.969666,514.816406 
	C892.183105,512.611877 887.012207,508.791199 881.254395,505.088287 
	C880.020386,490.159088 879.257874,475.829895 878.106689,461.531982 
	C877.446838,453.336182 876.155701,445.191254 875.148743,437.023407 
z"/>
<path id="Lower_LeftCanine" fill="#D7D7D7" opacity="1.000000" stroke="none" 
	d="
M296.500916,747.479004 
	C288.815826,756.512085 284.129120,767.189697 279.932404,778.091980 
	C274.776215,791.486877 270.928253,805.512878 264.525757,818.267700 
	C256.827118,833.604492 246.780273,847.394226 228.919250,853.134766 
	C219.103271,856.289673 209.624649,859.731262 199.064560,860.262390 
	C178.896225,861.276917 167.517944,849.066284 164.173096,832.282471 
	C162.038406,821.570923 162.063492,810.447998 160.577118,799.583801 
	C158.505051,784.438782 155.862991,769.372681 153.577164,754.255798 
	C150.011932,730.677979 149.214874,707.181335 156.887985,684.161255 
	C160.345306,673.789001 166.691574,665.434937 175.760269,659.145752 
	C182.723114,654.316956 189.234268,648.781494 196.453094,644.394104 
	C202.604706,640.655273 209.260666,637.455139 216.079498,635.167053 
	C229.438034,630.684631 241.271774,637.086426 252.847916,642.249146 
	C268.649139,649.296082 280.311279,660.770203 286.265747,678.277588 
	C286.165558,702.357239 289.705994,725.155518 296.500916,747.479004 
z"/>
<path id="Lower_RightCanine" fill="#C5881B" opacity="1.000000" stroke="none" 
	d="
M805.055176,672.908569 
	C812.800598,655.385193 826.226196,643.849854 843.711670,636.874084 
	C846.713867,635.676392 850.414001,635.716187 853.737976,635.949707 
	C859.651062,636.365234 865.533203,637.297607 871.403931,638.176697 
	C872.658081,638.364563 874.062378,638.983154 874.966675,639.851807 
	C883.876831,648.410400 895.966797,650.252319 906.829590,654.315308 
	C914.223816,657.080994 920.206482,660.694336 924.934204,666.719788 
	C933.547607,677.697388 936.765625,690.737610 938.947388,704.119751 
	C942.615906,726.620300 939.511963,748.885803 936.751953,771.207397 
	C935.654785,780.080566 935.530029,789.120422 935.590393,798.080139 
	C935.696045,813.755371 935.954224,829.315674 929.025757,844.039917 
	C927.071594,848.192932 923.301208,848.975830 920.326233,851.325500 
	C909.944763,859.524902 900.045654,857.630859 889.982910,851.295471 
	C880.119385,845.085510 870.720581,838.436584 862.802979,829.593689 
	C854.166504,819.948242 844.106567,811.580200 835.431885,801.965393 
	C823.960938,789.251099 812.858887,776.155518 802.389954,762.611877 
	C798.772278,757.931641 797.523010,751.420715 795.139893,745.025513 
	C801.482971,720.935181 807.247498,697.477295 805.055176,672.908569 
z"/>
<path id="Upper_LeftLateralIncisor" fill="#70A302" opacity="1.000000" stroke="none" 
	d="
M193.838242,518.169922 
	C189.457504,489.873901 189.971252,462.126953 196.758911,434.203186 
	C199.789780,423.622437 202.605820,413.383636 205.861435,403.286591 
	C210.820984,387.904968 218.176453,374.005341 233.486252,366.567719 
	C243.070511,361.911621 253.183487,360.411255 263.744781,364.311493 
	C287.046234,372.916595 300.869781,390.647736 310.933472,412.220764 
	C315.901031,422.869415 321.061523,433.428131 326.134674,444.027557 
	C326.586334,443.625824 327.037994,443.224121 327.489624,442.822418 
	C329.101044,443.514771 330.712433,444.207123 332.587891,445.087280 
	C332.267303,450.269714 331.306702,455.254547 331.175446,460.261108 
	C330.892609,471.047485 330.670471,481.859741 331.102234,492.634216 
	C331.590179,504.811646 332.822144,516.959290 333.749878,529.522278 
	C330.293701,547.877991 320.278290,550.584167 304.158234,552.991455 
	C294.201263,554.478333 284.239136,555.931519 274.273254,557.357422 
	C272.164185,557.659302 270.020203,558.015808 267.906860,557.940186 
	C254.661102,557.466553 241.413971,556.983521 228.177902,556.298889 
	C213.017426,555.514709 204.970306,545.548096 199.223587,533.052856 
	C197.082413,528.397217 195.702911,523.391357 193.838242,518.169922 
z"/>
<path id="Upper_RightLateralIncisor" fill="#4DAABB" opacity="1.000000" stroke="none" 
	d="
M875.068604,436.626465 
	C876.155701,445.191254 877.446838,453.336182 878.106689,461.531982 
	C879.257874,475.829895 880.020386,490.159088 880.939453,504.895935 
	C878.999146,512.837341 877.568909,520.532898 875.030212,527.843506 
	C869.085632,544.961609 856.821899,552.925537 838.575867,554.171814 
	C816.826111,555.657471 795.457764,554.149109 774.092407,550.558044 
	C770.173096,549.899292 766.039856,550.173157 762.259399,549.111694 
	C757.222839,547.697693 752.434998,545.397644 747.232544,543.325684 
	C746.577881,540.383179 745.888672,537.586914 745.939819,534.804199 
	C746.257507,517.515076 747.498901,500.204773 746.946350,482.949127 
	C746.443176,467.238281 744.052063,451.587860 742.485229,435.478546 
	C746.383667,424.231598 750.922791,413.774445 758.078552,404.584869 
	C760.500305,401.474762 762.170349,397.774689 764.146362,394.322754 
	C774.452087,376.319031 789.318604,363.826813 809.556885,358.929260 
	C823.625854,355.524658 836.266785,359.400055 845.674622,370.858856 
	C849.867798,375.966156 853.113525,381.850403 856.798401,387.375946 
	C866.704468,402.230377 870.723511,419.275421 875.068604,436.626465 
z"/>
<path id="LowerRightLateralIncisor" fill="#8E3FE2" opacity="1.000000" stroke="none" 
	d="
M686.103760,705.054382 
	C685.480286,708.606750 684.987061,712.187744 684.212524,715.706909 
	C677.826233,744.723938 672.250305,773.960876 664.559692,802.629761 
	C661.272705,814.882568 654.729004,826.763672 647.453003,837.283630 
	C641.754944,845.522156 631.175964,846.252441 621.432495,844.416870 
	C609.428772,842.155396 600.099243,835.381836 594.673462,824.609802 
	C588.630493,812.612671 582.682251,800.344421 578.779541,787.557312 
	C575.122131,775.573792 574.128174,762.768494 572.076111,750.306030 
	C568.779907,730.287842 565.436462,710.275452 562.406006,690.216431 
	C561.215149,682.333740 560.525574,674.346191 560.127502,666.380493 
	C559.674072,657.308105 566.458679,648.983582 575.692627,649.494690 
	C589.770264,650.273987 603.470947,647.743042 617.353943,647.081970 
	C632.129639,646.378235 646.928345,646.096619 661.720581,645.818176 
	C672.930969,645.607178 681.156982,650.653625 686.685364,661.178833 
	C687.791565,669.027771 689.263000,676.329102 689.112366,683.596802 
	C688.963745,690.767029 687.173706,697.903259 686.103760,705.054382 
z"/>
<path id="Lower_LeftLateralIncisor" fill="#B64E0D" opacity="1.000000" stroke="none" 
	d="
M397.967926,667.831116 
	C403.856720,654.626343 414.389740,649.260071 428.413727,649.827515 
	C435.891022,650.130066 443.364227,650.545044 450.843323,650.783508 
	C453.657471,650.873291 456.484436,650.490967 459.303009,650.526489 
	C467.090790,650.624451 474.877106,650.835999 482.664276,650.989502 
	C487.775421,651.090210 492.886993,651.230957 497.998505,651.236389 
	C502.158264,651.240845 506.327850,650.848328 510.476074,651.026855 
	C517.983765,651.349976 521.350403,655.179016 522.127136,662.630066 
	C524.179016,682.311890 521.508606,701.800659 520.311462,721.369690 
	C518.976074,743.198975 515.165161,764.604675 509.677979,785.677856 
	C507.524353,793.948547 503.679108,801.840027 500.052582,809.647949 
	C496.695496,816.875732 492.953766,823.980225 488.745911,830.743652 
	C483.121582,839.783813 474.717926,844.448608 463.923035,845.081360 
	C452.980896,845.722778 445.882202,839.335266 440.403076,831.551880 
	C422.213013,805.711853 415.795349,775.560547 410.007172,745.240967 
	C408.733002,738.566467 406.860168,732.006287 405.040710,724.687012 
	C402.596558,714.861206 400.313507,705.756104 398.169769,696.618408 
	C395.925659,687.052551 394.714081,677.449524 397.967926,667.831116 
z"/>
<path id="Lower_RightLateralIncisor" fill="#7A4343" opacity="0.900000" stroke="none" 
	d="
M686.330444,705.388306 
	C687.173706,697.903259 688.963745,690.767029 689.112366,683.596802 
	C689.263000,676.329102 687.791565,669.027771 686.970337,661.353882 
	C689.430420,652.922607 695.144470,649.216736 703.334839,648.973328 
	C714.778931,648.633057 726.223145,648.199585 737.670166,648.081055 
	C751.950500,647.933105 766.235840,647.916260 780.514832,648.126160 
	C790.768921,648.276855 799.450867,654.845825 802.801819,664.500488 
	C803.670959,667.004578 804.303040,669.590942 805.049561,672.524048 
	C807.247498,697.477295 801.482971,720.935181 795.005737,744.692383 
	C791.932434,756.084656 788.799927,767.053589 785.983398,778.103027 
	C781.807617,794.485046 778.140503,810.887939 770.708374,826.382629 
	C765.193237,837.880615 756.192017,841.778259 744.970642,844.078308 
	C730.898865,846.962585 723.361511,839.272705 715.228882,829.251526 
	C700.395447,810.973877 698.111328,789.034729 694.074036,767.453613 
	C691.969421,756.203369 690.177490,744.876770 688.768677,733.519653 
	C687.625549,724.304199 687.264832,714.991699 686.330444,705.388306 
z"/>
<path id="Lower_LeftLateralIncisor" fill="#D40202" opacity="0.500000" stroke="none" 
	d="
M397.726929,667.499512 
	C394.714081,677.449524 395.925659,687.052551 398.169769,696.618408 
	C400.313507,705.756104 402.596558,714.861206 404.916138,724.314331 
	C403.996124,733.531189 403.254547,742.456543 401.905548,751.289185 
	C398.655609,772.567871 392.604279,793.028259 382.789307,812.873779 
	C382.236389,813.563721 382.122314,813.836487 382.094147,814.145203 
	C382.094147,814.145203 382.074097,814.059570 381.861938,814.234253 
	C381.462372,814.982300 381.274933,815.555603 381.087524,816.128906 
	C381.087524,816.128906 381.057037,816.042603 380.836700,816.200317 
	C380.430084,816.934326 380.243805,817.510742 380.057526,818.087097 
	C380.057526,818.087097 380.034912,818.018127 379.756592,818.155762 
	C372.833923,827.650208 365.670593,836.511902 355.960052,842.943420 
	C354.267517,843.356934 352.574951,843.770447 350.070618,844.114014 
	C344.087891,842.817322 338.916992,841.590637 333.746094,840.364014 
	C333.746094,840.364014 333.926025,840.295471 333.790802,839.957520 
	C332.041504,838.466431 330.427429,837.313232 328.813354,836.159973 
	C328.813385,836.159973 328.861145,836.098511 328.792908,835.876587 
	C328.431549,835.466003 328.138367,835.277344 327.845215,835.088745 
	C327.845215,835.088745 327.909454,835.134277 327.880920,834.795288 
	C324.551971,828.678040 321.251587,822.899902 317.951172,817.121765 
	C314.697845,806.316345 311.496918,795.494751 308.177307,784.709717 
	C304.425751,772.521301 300.567505,760.365723 296.628296,747.837402 
	C289.705994,725.155518 286.165558,702.357239 286.452362,678.619995 
	C287.994934,672.526245 289.002411,666.548706 291.338287,661.145447 
	C294.569061,653.671997 300.693390,649.786194 309.142120,649.856262 
	C324.573456,649.984131 340.006073,649.981201 355.438171,649.977417 
	C361.750854,649.975891 368.066925,649.658752 374.375427,649.785339 
	C388.435211,650.067505 392.977234,653.568970 397.726929,667.499512 
z"/>
</svg>